Coordinates
version=1
nRows=30
nColumns=38
inDegrees=no

Units are S.I. units (second, meters, Newtons, ...)
If the header above contains a line with 'inDegrees', this indicates whether rotational values are in degrees (yes) or radians (no).

endheader
time	pelvis_tilt	pelvis_list	pelvis_rotation	pelvis_tx	pelvis_ty	pelvis_tz	hip_flexion_r	hip_adduction_r	hip_rotation_r	knee_angle_r	ankle_angle_r	subtalar_angle_r	mtp_angle_r	hip_flexion_l	hip_adduction_l	hip_rotation_l	knee_angle_l	ankle_angle_l	subtalar_angle_l	mtp_angle_l	lumbar_extension	lumbar_bending	lumbar_rotation	arm_flex_r	arm_add_r	arm_rot_r	elbow_flex_r	pro_sup_r	wrist_flex_r	wrist_dev_r	arm_flex_l	arm_add_l	arm_rot_l	elbow_flex_l	pro_sup_l	wrist_flex_l	wrist_dev_l
0.77	-0.0630975	1.37232	-1.42598	0.602095	0.930513	0.955809	-0.173494	0.075347	-0.144023	0.418991	-0.125273	0	0	0.310127	-0.132271	-0.110274	1.23087	-0.249902	0	0	-0.411855	0.0715326	-0.0124008	-0.175983	-0.501556	0.539342	0.814572	0.853986	0	0	-0.183055	-0.205931	-0.0590401	0.649736	1.50229	0	0
0.78	-0.0332441	1.37349	-1.45266	0.602372	0.923334	0.955685	-0.184099	0.0708652	-0.144122	0.413767	-0.122202	0	0	0.320447	-0.116417	-0.107304	1.1841	-0.236166	0	0	-0.415394	0.0660985	-0.0220795	-0.164996	-0.501813	0.552488	0.81278	0.849371	0	0	-0.185601	-0.203273	-0.0796245	0.6559	1.51733	0	0
0.79	-0.0136524	1.37525	-1.46848	0.602694	0.916094	0.955257	-0.193689	0.0687761	-0.144637	0.40921	-0.119783	0	0	0.332169	-0.108435	-0.112952	1.13659	-0.231509	0	0	-0.417558	0.063252	-0.0306053	-0.156468	-0.502252	0.562306	0.812328	0.844773	0	0	-0.187599	-0.201857	-0.094277	0.661688	1.52765	0	0
0.8	0.00290982	1.38243	-1.47917	0.603227	0.909107	0.954403	-0.19612	0.0668686	-0.145788	0.407398	-0.115379	0	0	0.350231	-0.0973325	-0.11167	1.0864	-0.23345	0	0	-0.414242	0.0613413	-0.0411396	-0.145829	-0.501326	0.57532	0.807809	0.839847	0	0	-0.187623	-0.199203	-0.11044	0.663287	1.53962	0	0
0.81	0.0102523	1.38723	-1.48371	0.603541	0.901607	0.953569	-0.202444	0.0668142	-0.145668	0.403673	-0.10983	0	0	0.361166	-0.0915268	-0.118247	1.03147	-0.237375	0	0	-0.412262	0.0606939	-0.0478803	-0.137793	-0.501188	0.58563	0.805079	0.833855	0	0	-0.187831	-0.195745	-0.12606	0.663773	1.55107	0	0
0.82	0.0150426	1.3909	-1.48641	0.603846	0.893931	0.952778	-0.211468	0.0674988	-0.144637	0.397004	-0.105474	0	0	0.368285	-0.0877868	-0.128828	0.973658	-0.242255	0	0	-0.411046	0.0605194	-0.0526583	-0.131121	-0.501074	0.595136	0.802497	0.828296	0	0	-0.187116	-0.192314	-0.140004	0.662856	1.56245	0	0
0.83	0.0216382	1.39304	-1.49043	0.604174	0.886262	0.95203	-0.223547	0.0683024	-0.143488	0.387426	-0.102599	0	0	0.371638	-0.0840276	-0.140617	0.912635	-0.249907	0	0	-0.404209	0.0602955	-0.0188716	-0.179029	-0.482673	0.504018	0.806711	0.880083	0	0	-0.153144	-0.250325	0.068423	0.645839	1.39504	0	0
0.84	0.0226356	1.39763	-1.48865	0.604739	0.878365	0.95107	-0.233557	0.0697513	-0.142586	0.376833	-0.10169	0	0	0.375508	-0.080418	-0.150653	0.848728	-0.256564	0	0	-0.407963	0.0610862	-0.0480348	-0.144141	-0.487942	0.554596	0.797874	0.86197	0	0	-0.174728	-0.199936	-0.114044	0.653041	1.55343	0	0
0.85	0.0241732	1.40166	-1.48716	0.605388	0.870458	0.950017	-0.244086	0.0710735	-0.1432	0.366941	-0.0999487	0	0	0.375841	-0.0758172	-0.158872	0.780234	-0.258218	0	0	-0.405273	0.0622494	-0.0478736	-0.14667	-0.484896	0.546645	0.795824	0.866211	0	0	-0.169757	-0.202292	-0.103443	0.64875	1.5455	0	0
0.86	0.0181412	1.40608	-1.4782	0.6061	0.86239	0.948691	-0.2543	0.073832	-0.143446	0.35678	-0.0986432	0	0	0.3775	-0.0719202	-0.164309	0.715594	-0.257816	0	0	-0.401672	0.064689	-0.0473001	-0.150454	-0.482924	0.53834	0.795702	0.869482	0	0	-0.166101	-0.204414	-0.0930158	0.645654	1.53652	0	0
0.87	0.0077711	1.40609	-1.4675	0.606726	0.853801	0.947575	-0.272783	0.0778892	-0.138843	0.338306	-0.0993005	0	0	0.370398	-0.0739271	-0.18522	0.648409	-0.258788	0	0	-0.401463	0.0673559	-0.04342	-0.156773	-0.482026	0.528028	0.797811	0.873393	0	0	-0.163725	-0.207334	-0.0786846	0.643987	1.5248	0	0
0.88	0.0142357	1.41525	-1.46701	0.60806	0.846231	0.946028	-0.276213	0.0779603	-0.140575	0.330788	-0.0965231	0	0	0.371754	-0.0583106	-0.167341	0.572606	-0.259106	0	0	-0.392489	0.0681845	-0.0473345	-0.15268	-0.483001	0.541218	0.791899	0.855894	0	0	-0.157915	-0.215066	-0.0494663	0.637673	1.49886	0	0
0.89	0.000498651	1.41507	-1.45394	0.608847	0.837433	0.944704	-0.291516	0.0809119	-0.138646	0.320898	-0.0962484	0	0	0.361409	-0.058724	-0.18383	0.507144	-0.257103	0	0	-0.39336	0.0711575	-0.0482704	-0.152154	-0.485779	0.545217	0.794348	0.852523	0	0	-0.1611	-0.209306	-0.0669583	0.639411	1.5149	0	0
0.9	-0.00491195	1.41888	-1.44554	0.610087	0.829192	0.943282	-0.299659	0.0819786	-0.139189	0.316502	-0.0955346	0	0	0.352289	-0.0498434	-0.175111	0.435806	-0.254723	0	0	-0.391298	0.0734956	-0.0524419	-0.149807	-0.487157	0.549626	0.793826	0.848268	0	0	-0.161294	-0.202719	-0.0863171	0.63809	1.53372	0	0
0.91	-0.00977502	1.4236	-1.4368	0.611536	0.82107	0.94182	-0.304285	0.0824753	-0.141822	0.317516	-0.0930302	0	0	0.342019	-0.0390778	-0.158024	0.364976	-0.250928	0	0	-0.388478	0.0758634	-0.0571803	-0.147394	-0.488402	0.55407	0.792777	0.845031	0	0	-0.160665	-0.19658	-0.103987	0.636225	1.55106	0	0
0.92	-0.00262854	1.4326	-1.43725	0.613283	0.813437	0.940371	-0.300505	0.0804607	-0.148031	0.326551	-0.0879187	0	0	0.333053	-0.0216212	-0.121857	0.289688	-0.251037	0	0	-0.382067	0.076629	-0.0647379	-0.14229	-0.487057	0.560284	0.786142	0.843253	0	0	-0.156781	-0.189806	-0.123535	0.629677	1.57063	0	0
0.93	-0.00945449	1.42789	-1.43276	0.614113	0.804456	0.939523	-0.314356	0.0812117	-0.148864	0.33043	-0.0863986	0	0	0.3082	-0.0180729	-0.123315	0.226357	-0.247409	0	0	-0.381676	0.0779753	-0.0283915	-0.191562	-0.471559	0.468529	0.795392	0.896365	0	0	-0.129127	-0.23825	0.06843	0.617483	1.4151	0	0
0.94	-0.0168513	1.42853	-1.42667	0.614885	0.795579	0.938631	-0.319999	0.0815261	-0.148032	0.339284	-0.0835305	0	0	0.281574	-0.0170998	-0.104856	0.139229	-0.270963	0	0	-0.389729	0.0786672	-0.0584966	-0.154429	-0.479065	0.524366	0.786678	0.88095	0	0	-0.157429	-0.186002	-0.131031	0.63265	1.5708	0	0
0.95	-0.0160781	1.42998	-1.42723	0.61637	0.786801	0.937517	-0.323169	0.0790607	-0.151001	0.352619	-0.0811538	0	0	0.276966	-0.00592393	-0.11246	0.133305	-0.251999	0	0	-0.389207	0.0791797	-0.057559	-0.157459	-0.478662	0.518652	0.78614	0.885536	0	0	-0.157211	-0.185163	-0.128923	0.632382	1.5708	0	0
0.96	-0.0206868	1.43012	-1.42412	0.617429	0.777721	0.936594	-0.328154	0.0779993	-0.149288	0.364259	-0.0807651	0	0	0.270359	-0.00329581	-0.123408	0.124827	-0.249265	0	0	-0.389443	0.0794712	-0.0554381	-0.160213	-0.47764	0.513717	0.785182	0.888878	0	0	-0.158232	-0.184845	-0.127581	0.632794	1.5708	0	0
0.97	-0.0218147	1.42927	-1.42398	0.618569	0.76855	0.935813	-0.333252	0.0764062	-0.149428	0.378458	-0.0808219	0	0	0.267491	-0.001267	-0.138387	0.137422	-0.244551	0	0	-0.390599	0.0794951	-0.0532043	-0.164928	-0.476337	0.505537	0.785728	0.894446	0	0	-0.159217	-0.185028	-0.125058	0.633774	1.5708	0	0
0.98	-0.0208053	1.42791	-1.42567	0.619815	0.75921	0.935148	-0.338372	0.0743908	-0.150753	0.393738	-0.0822305	0	0	0.266476	0.000345261	-0.153558	0.165022	-0.239818	0	0	-0.391588	0.0794131	-0.0502758	-0.171746	-0.474908	0.494848	0.78723	0.900709	0	0	-0.159687	-0.18581	-0.120041	0.634081	1.5708	0	0
0.99	-0.0171578	1.42651	-1.4306	0.621125	0.749627	0.934596	-0.343486	0.0717121	-0.15118	0.408833	-0.0855207	0	0	0.261715	0.00311316	-0.160111	0.190827	-0.239789	0	0	-0.391764	0.0787162	-0.0456795	-0.180257	-0.47323	0.482551	0.788404	0.907275	0	0	-0.159922	-0.189838	-0.103767	0.6346	1.56517	0	0
1	0.0147072	1.42449	-1.46361	0.622379	0.740058	0.934825	-0.350814	0.0647298	-0.149849	0.419765	-0.0921895	0	0	0.179263	0.0305876	-0.0121238	0.0304888	-0.308383	0	0	-0.392769	0.0732968	-0.0467812	-0.174643	-0.47567	0.503495	0.781492	0.885237	0	0	-0.160603	-0.192083	-0.097405	0.631879	1.55976	0	0
1.01	0.019565	1.42348	-1.47019	0.623762	0.729937	0.934471	-0.356457	0.0615179	-0.147595	0.431764	-0.0980025	0	0	0.166771	0.0360682	-0.00491716	0.0327839	-0.310566	0	0	-0.391939	0.072192	-0.0473713	-0.17602	-0.475285	0.505584	0.778398	0.886237	0	0	-0.165266	-0.187929	-0.109894	0.632662	1.5708	0	0
1.02	0.0208715	1.42349	-1.47332	0.625186	0.719653	0.934084	-0.35915	0.0583766	-0.146148	0.447618	-0.105938	0	0	0.157505	0.0407833	-0.00156527	0.0316647	-0.315068	0	0	-0.389737	0.0713225	-0.0482151	-0.177064	-0.474393	0.507897	0.773987	0.88745	0	0	-0.171299	-0.18437	-0.119521	0.634718	1.5708	0	0
1.03	0.0183367	1.42501	-1.47225	0.62664	0.709317	0.933743	-0.359089	0.0560286	-0.143213	0.464782	-0.115027	0	0	0.15266	0.0440488	-0.000301458	0.0323675	-0.328588	0	0	-0.385575	0.0707231	-0.0485798	-0.178539	-0.473162	0.509993	0.768496	0.888713	0	0	-0.177619	-0.182216	-0.124717	0.637416	1.5708	0	0
1.04	0.0168081	1.42692	-1.47198	0.628117	0.698931	0.933503	-0.357481	0.0534993	-0.139644	0.483494	-0.127875	0	0	0.160023	0.04473	-0.0223719	0.0618332	-0.344902	0	0	-0.374709	0.0700496	-0.0210591	-0.215121	-0.460034	0.450147	0.767719	0.919273	0	0	-0.161215	-0.221986	0.0263701	0.627712	1.45943	0	0
1.05	0.0108524	1.43108	-1.46726	0.629782	0.688365	0.933258	-0.352349	0.050274	-0.135849	0.503988	-0.144494	0	0	0.158235	0.0461507	-0.0235945	0.0669194	-0.370001	0	0	-0.373266	0.0696192	-0.0476165	-0.190309	-0.462904	0.4854	0.756357	0.925245	0	0	-0.189283	-0.178635	-0.130935	0.641921	1.5708	0	0
1.06	0.00517682	1.43439	-1.46294	0.631593	0.67774	0.933078	-0.346298	0.0459801	-0.132991	0.528089	-0.16049	0	0	0.157439	0.0471262	-0.0266223	0.0795753	-0.377029	0	0	-0.365968	0.0698477	-0.0472422	-0.195187	-0.462596	0.48352	0.753414	0.92938	0	0	-0.195249	-0.176738	-0.132431	0.643316	1.5708	0	0
